<svg id="e7d6f358-30c2-48ff-b24e-ae48b8b3fba2" data-name="Layer 1" xmlns="http://www.w3.org/2000/svg" viewBox="0 0 294.36 294"><title>Coloured Icon</title><g id="b3f83e78-3b29-4203-b851-4d04ceb12a96" data-name="Logo"><path d="M500.58,591l-47.06.09-.34-137.66,47.05-.08Zm46.52-50.82-49.84.09-.1-38.15L547,502Zm-3.4-86.91,47-.09.34,137.66-47.05.08Z" transform="translate(-452.82 -453)" style="fill:#ff4f5e"/><path d="M609.2,590.91l-.29-137.76L678,453q20.1,0,34.78,6.22t22.7,18q8,11.7,8.06,27.64t-7.94,27.47q-8,11.54-22.63,17.66t-34.75,6.18l-42.24.09,21.49-19.14.11,53.73Zm48.3-48.71-21.58-21,39.17-.09q10,0,14.86-4.36t4.8-11.82q0-7.47-4.85-11.8T675,488.83l-39.17.08,21.49-21.11Zm37.64,48.53-35.39-50.11,51.28-.11,35.79,50.11Z" transform="translate(-452.82 -453)" style="fill:#ff4f5e"/><path d="M452.82,747V718.43L536.69,629l6.23,16.16H455v-36H587.65v28.56L503.79,727.1,497.55,711h93.54v36Z" transform="translate(-452.82 -453)" style="fill:#ff4f5e"/><path d="M609.27,747V609.09H648L719.2,693h-18V609.09h46V747H708.4l-71.15-83.93h18V747Z" transform="translate(-452.82 -453)" style="fill:#ff4f5e"/></g></svg>