<svg id="b280acba-ad71-4eaf-ae01-2493c6d49b3d" data-name="Manip 1" xmlns="http://www.w3.org/2000/svg" viewBox="0 0 415.67 106"><title>Coloured_White_Logo</title><path d="M85.69,118.57l-17.06,0L68.51,69l17.06,0Zm16.87-18.33-18.07,0,0-13.76,18.07,0Zm-1.24-31.33,17.06,0,.13,49.63-17.06,0Z" transform="translate(-68.38 -68.81)" style="fill:#ff4f5e"/><path d="M125.07,118.54,125,68.87,150,68.81a31.89,31.89,0,0,1,12.61,2.25,18.47,18.47,0,0,1,8.23,6.47,17.2,17.2,0,0,1,2.92,10,16.8,16.8,0,0,1-2.88,9.9,18.2,18.2,0,0,1-8.2,6.37A32.73,32.73,0,0,1,150.1,106l-15.32,0,7.8-6.9,0,19.37ZM142.58,101l-7.82-7.57,14.2,0c2.43,0,4.22-.53,5.39-1.57a6.08,6.08,0,0,0,0-8.52c-1.17-1-3-1.55-5.4-1.55l-14.2,0,7.79-7.61Zm13.65,17.5L143.4,100.41l18.59,0,13,18.06Z" transform="translate(-68.38 -68.81)" style="fill:#ff4f5e"/><path d="M68.38,174.81v-10.3l30.4-32.24,2.26,5.82H69.15v-13h48.11v10.3L86.85,167.64l-2.26-5.82h33.92v13Z" transform="translate(-68.38 -68.81)" style="fill:#ff4f5e"/><path d="M125.09,174.81V125.09h14.06L165,155.35h-6.52V125.09h16.66v49.72H161l-25.8-30.26h6.52v30.26Z" transform="translate(-68.38 -68.81)" style="fill:#ff4f5e"/><path d="M206.41,143.3H192.16V93.17h14.25Zm20.38-19.55H205.33V112h21.46Zm-1-30.58H240V143.3H225.78Z" transform="translate(-68.38 -68.81)" style="fill:#fff"/><path d="M269.05,143.94a24.3,24.3,0,0,1-11.37-2.58,19.7,19.7,0,0,1-7.81-7.12,20.35,20.35,0,0,1,0-20.77,19.7,19.7,0,0,1,7.81-7.12,24.3,24.3,0,0,1,11.37-2.58,24.57,24.57,0,0,1,11.42,2.58,19.65,19.65,0,0,1,7.84,7.12,20.35,20.35,0,0,1,0,20.77,19.65,19.65,0,0,1-7.84,7.12A24.57,24.57,0,0,1,269.05,143.94Zm0-10.81a8,8,0,0,0,4.14-1.08,7.74,7.74,0,0,0,3-3.18,10.73,10.73,0,0,0,1.11-5.05,10.2,10.2,0,0,0-1.11-5,7.87,7.87,0,0,0-7.1-4.16,7.84,7.84,0,0,0-7.09,4.16,10.2,10.2,0,0,0-1.11,5,10.73,10.73,0,0,0,1.11,5.05,7.79,7.79,0,0,0,3,3.18A8,8,0,0,0,269.05,133.13Z" transform="translate(-68.38 -68.81)" style="fill:#fff"/><path d="M311.61,143.94a40.53,40.53,0,0,1-9.69-1.15,27.37,27.37,0,0,1-7.59-2.86l4-9.31a26.53,26.53,0,0,0,6.48,2.65,27.16,27.16,0,0,0,7.2,1,10.69,10.69,0,0,0,4.79-.75,2.29,2.29,0,0,0,1.33-2,1.8,1.8,0,0,0-1.23-1.65,11.21,11.21,0,0,0-3.31-.82l-4.5-.57a39.91,39.91,0,0,1-4.93-1,18.54,18.54,0,0,1-4.57-1.9,9.07,9.07,0,0,1-3.28-3.37,10.82,10.82,0,0,1-1.22-5.44,10.69,10.69,0,0,1,2.19-6.62,14.83,14.83,0,0,1,6.41-4.62,27.58,27.58,0,0,1,10.41-1.72,41.74,41.74,0,0,1,8.31.86,23.72,23.72,0,0,1,7.09,2.51l-4.1,9.3a18.49,18.49,0,0,0-5.76-2.29,27.89,27.89,0,0,0-5.4-.57,11.69,11.69,0,0,0-4.93.75c-1,.5-1.48,1.14-1.48,1.9a1.9,1.9,0,0,0,1.3,1.75,12.08,12.08,0,0,0,3.31.93c1.34.22,2.84.43,4.5.65a38,38,0,0,1,4.93,1,16.53,16.53,0,0,1,4.47,1.89,9.87,9.87,0,0,1,3.27,3.37,10.58,10.58,0,0,1,1.26,5.48,10.32,10.32,0,0,1-2.16,6.37,14.58,14.58,0,0,1-6.48,4.58A28.83,28.83,0,0,1,311.61,143.94Z" transform="translate(-68.38 -68.81)" style="fill:#fff"/><path d="M332.7,116.09V105.92H361v10.17Zm21.53,27.85q-7.49,0-11.67-3.69t-4.17-11.13V95.75h13.68V128.9a4.66,4.66,0,0,0,1.11,3.37,4,4,0,0,0,3,1.14,7.28,7.28,0,0,0,4.18-1.21l3.46,9.45a13.08,13.08,0,0,1-4.36,1.75A24.57,24.57,0,0,1,354.23,143.94Z" transform="translate(-68.38 -68.81)" style="fill:#fff"/><path d="M375.83,100.19a8.66,8.66,0,0,1-6.09-2.08A6.69,6.69,0,0,1,367.48,93a6.6,6.6,0,0,1,2.26-5.12,8.78,8.78,0,0,1,6.09-2,9.11,9.11,0,0,1,6.05,1.93,6.18,6.18,0,0,1,2.3,4.94A7.09,7.09,0,0,1,381.91,98,8.49,8.49,0,0,1,375.83,100.19ZM369,143.3V104.41h13.68V143.3Z" transform="translate(-68.38 -68.81)" style="fill:#fff"/><path d="M416.94,103.77a17.93,17.93,0,0,1,8.21,1.86,13.56,13.56,0,0,1,5.79,5.66,19.92,19.92,0,0,1,2.13,9.81v22.2H419.32v-20q0-4.16-1.7-6a5.79,5.79,0,0,0-4.57-1.9,8.31,8.31,0,0,0-4,1,6.59,6.59,0,0,0-2.81,3,11.88,11.88,0,0,0-1,5.3V143.3H391.52V104.41h13.11v11.1L402,112.29a15.41,15.41,0,0,1,6.12-6.34A17.67,17.67,0,0,1,416.94,103.77Z" transform="translate(-68.38 -68.81)" style="fill:#fff"/><path d="M458.77,141.29A19.7,19.7,0,0,1,449.3,139a17.89,17.89,0,0,1-9.61-16.43,18.47,18.47,0,0,1,2.63-10,17.93,17.93,0,0,1,7-6.52,20,20,0,0,1,9.47-2.29,17.06,17.06,0,0,1,8.57,2A12.67,12.67,0,0,1,472.7,112a26.28,26.28,0,0,1,1.84,10.56,26.28,26.28,0,0,1-1.84,10.56,12.74,12.74,0,0,1-5.36,6.2A17.16,17.16,0,0,1,458.77,141.29Zm2.45,16.54a43.68,43.68,0,0,1-10.73-1.29,25.57,25.57,0,0,1-8.64-3.79l5-9.45a19.27,19.27,0,0,0,6.08,3,24.48,24.48,0,0,0,7.17,1.11q5.46,0,7.88-2.4t2.41-7v-4.51l.72-11V104.41h13v31.8q0,11-5.94,16.32T461.22,157.83Zm.86-27.35a9.12,9.12,0,0,0,4.39-1,7.74,7.74,0,0,0,3-2.8,8.25,8.25,0,0,0,0-8.3,7.5,7.5,0,0,0-3-2.76,10.33,10.33,0,0,0-8.74,0,7.62,7.62,0,0,0-3.06,2.76,8.06,8.06,0,0,0,0,8.3,7.87,7.87,0,0,0,3.06,2.8A9.18,9.18,0,0,0,462.08,130.48Z" transform="translate(-68.38 -68.81)" style="fill:#fff"/></svg>