<svg id="e6c861b7-1b0e-45a1-a09b-0dd36d8b27b6" data-name="Layer 2" xmlns="http://www.w3.org/2000/svg" viewBox="0 0 1146.53 294"><title>Coloured Full</title><g id="e6a2878a-7e7f-4fbc-b31d-76fdc9e87fb8" data-name="Logo"><path d="M74.38,591l-47.06.09L27,453.42,74,453.34Zm46.52-50.82-49.84.09L71,502.11l49.84-.09Zm-3.4-86.91,47.05-.09.35,137.66-47.06.08Z" transform="translate(-26.62 -453)" style="fill:#ff4f5e"/><path d="M183,590.91l-.29-137.76,69.11-.15q20.1,0,34.78,6.22t22.7,18q8,11.7,8.06,27.64t-7.94,27.47q-8,11.54-22.63,17.66T252,556.13l-42.24.09,21.49-19.14.11,53.73Zm48.3-48.71-21.58-21,39.17-.09q10.05,0,14.86-4.36t4.8-11.82q0-7.47-4.85-11.8t-14.88-4.29l-39.17.08,21.49-21.11Zm37.64,48.53-35.39-50.11,51.28-.11,35.79,50.11Z" transform="translate(-26.62 -453)" style="fill:#ff4f5e"/><path d="M26.62,747V718.43L110.49,629l6.23,16.16H28.77v-36H161.45v28.56L77.59,727.1,71.35,711H164.9v36Z" transform="translate(-26.62 -453)" style="fill:#ff4f5e"/><path d="M183.07,747V609.09h38.77L293,693H275V609.09h46V747H282.2l-71.15-83.93h18V747Z" transform="translate(-26.62 -453)" style="fill:#ff4f5e"/></g><g id="ee78296e-3753-4002-8a87-ef538d5f330e" data-name="Wordmark"><path d="M407.37,659.58H368.05v-139h39.32Zm56.2-54.22H404.39V572.79h59.18Zm-2.78-84.8h39.33v139H460.79Z" transform="translate(-26.62 -453)"/><path d="M580.15,661.37q-17.68,0-31.38-7.15a54.57,54.57,0,0,1-21.55-19.76,53.22,53.22,0,0,1-7.84-28.7q0-16.29,7.84-28.9a54.64,54.64,0,0,1,21.55-19.76Q562.48,550,580.15,550t31.48,7.15a54.43,54.43,0,0,1,21.64,19.76,56.76,56.76,0,0,1,0,57.6,54.35,54.35,0,0,1-21.64,19.76Q597.81,661.36,580.15,661.37Zm0-30a22.19,22.19,0,0,0,11.42-3,21.59,21.59,0,0,0,8.14-8.84,29.74,29.74,0,0,0,3.08-14q0-8.34-3.08-13.9a22.2,22.2,0,0,0-39.12,0q-3.09,5.57-3.08,13.9a29.62,29.62,0,0,0,3.08,14,21.53,21.53,0,0,0,8.14,8.84A22.16,22.16,0,0,0,580.15,631.38Z" transform="translate(-26.62 -453)"/><path d="M697.52,661.37a112.54,112.54,0,0,1-26.71-3.18q-13-3.18-21-7.94L661,624.43a73.18,73.18,0,0,0,17.87,7.34,74.56,74.56,0,0,0,19.86,2.79q9.52,0,13.21-2.09c2.44-1.39,3.67-3.28,3.67-5.66q0-3-3.38-4.57a30.32,30.32,0,0,0-9.13-2.28q-5.76-.69-12.42-1.59a106.32,106.32,0,0,1-13.6-2.78,50.2,50.2,0,0,1-12.61-5.26,25,25,0,0,1-9-9.34Q652,595,652,585.9a29.73,29.73,0,0,1,6.06-18.37q6-8,17.67-12.81t28.7-4.77a114,114,0,0,1,22.94,2.39A65.36,65.36,0,0,1,747,559.29L735.65,585.1a50.22,50.22,0,0,0-15.89-6.35,76.12,76.12,0,0,0-14.89-1.59q-9.54,0-13.61,2.09t-4.07,5.26q0,3.18,3.57,4.86A34.48,34.48,0,0,0,699.9,592q5.57.88,12.41,1.78a108.73,108.73,0,0,1,13.61,2.68,44.83,44.83,0,0,1,12.31,5.27,27.3,27.3,0,0,1,9,9.33q3.47,5.87,3.47,15.19a28.77,28.77,0,0,1-6,17.68q-6,8-17.87,12.71T697.52,661.37Z" transform="translate(-26.62 -453)"/><path d="M755.71,584.11v-28.2h78v28.2Zm59.38,77.26q-20.67,0-32.18-10.23t-11.52-30.88V527.71h37.74v91.95q0,6.17,3.08,9.33a10.92,10.92,0,0,0,8.24,3.18A20,20,0,0,0,832,628.8L841.5,655a35.76,35.76,0,0,1-12,4.87A67.7,67.7,0,0,1,815.09,661.37Z" transform="translate(-26.62 -453)"/><path d="M874.66,540q-10.53,0-16.78-5.76a18.62,18.62,0,0,1-6.25-14.3,18.32,18.32,0,0,1,6.25-14.19q6.25-5.67,16.78-5.66,10.33,0,16.68,5.36a17.11,17.11,0,0,1,6.36,13.7,19.71,19.71,0,0,1-6.26,14.9Q885.19,540,874.66,540ZM855.8,659.58V551.74h37.73V659.58Z" transform="translate(-26.62 -453)"/><path d="M988.06,550a49.15,49.15,0,0,1,22.64,5.17,37.65,37.65,0,0,1,16,15.69q5.85,10.53,5.86,27.2v61.57H994.61V604.17q0-11.52-4.66-16.78t-12.61-5.26a23,23,0,0,0-11.13,2.68,18.29,18.29,0,0,0-7.74,8.24q-2.79,5.57-2.78,14.69v51.84H918V551.74H954.1v30.78L947,573.59A42.81,42.81,0,0,1,963.83,556,48.39,48.39,0,0,1,988.06,550Z" transform="translate(-26.62 -453)"/><path d="M1103.44,654a54.22,54.22,0,0,1-26.11-6.46,50.39,50.39,0,0,1-19.27-18.07q-7.24-11.61-7.25-27.5t7.25-27.61a49.5,49.5,0,0,1,19.27-18.07,54.94,54.94,0,0,1,26.11-6.36q13.9,0,23.63,5.56t14.8,17.18q5.07,11.63,5.06,29.3t-5.06,29.29q-5.07,11.61-14.8,17.18T1103.44,654Zm6.75,45.87a120.17,120.17,0,0,1-29.59-3.57,70.19,70.19,0,0,1-23.83-10.53l13.7-26.21a53,53,0,0,0,16.79,8.24A67.13,67.13,0,0,0,1107,670.9q15.09,0,21.74-6.65t6.66-19.37V632.37l2-30.38V551.74h35.75v88.18q0,30.57-16.38,45.28T1110.19,699.89Zm2.39-75.86a25.09,25.09,0,0,0,12.11-2.78,22.37,22.37,0,0,0,8.24-30.78,20.85,20.85,0,0,0-8.24-7.65,28.5,28.5,0,0,0-24.13,0,21.39,21.39,0,0,0-8.44,7.65,22.44,22.44,0,0,0,0,23,22,22,0,0,0,8.44,7.75A25.28,25.28,0,0,0,1112.58,624Z" transform="translate(-26.62 -453)"/></g></svg>